0
SECTION
2
HEADER
9
$INSUNITS
70
4
9
$ACADVER
1
AC1014
9
$HANDSEED
5
FFFF
0
ENDSEC
0
SECTION
2
TABLES
0
TABLE
2
VPORT
5
8
100
AcDbSymbolTable
0
ENDTAB
0
TABLE
2
LTYPE
5
5
100
AcDbSymbolTable
0
LTYPE
5
14
100
AcDbSymbolTableRecord
100
AcDbLinetypeTableRecord
2
BYBLOCK
70
0
0
LTYPE
5
15
100
AcDbSymbolTableRecord
100
AcDbLinetypeTableRecord
2
BYLAYER
70
0
0
LTYPE
5
16
100
AcDbSymbolTableRecord
100
AcDbLinetypeTableRecord
2
DASHED
70
0
3
Dashed __ __ __ __ __ __ __ __ __ __ __ __ __ _
72
65
73
2
40
0.75
49
0.5
74
0
49
-0.25
74
0
0
ENDTAB
0
TABLE
2
LAYER
5
2
100
AcDbSymbolTable
70
2
0
LAYER
5
50
100
AcDbSymbolTableRecord
100
AcDbLayerTableRecord
2
0
70
0
62
7
6
CONTINUOUS
0
ENDTAB
0
TABLE
2
STYLE
5
3
100
AcDbSymbolTable
70
1
0
STYLE
5
11
100
AcDbSymbolTableRecord
100
AcDbTextStyleTableRecord
2
STANDARD
70
0
0
ENDTAB
0
TABLE
2
VIEW
5
6
100
AcDbSymbolTable
70
0
0
ENDTAB
0
TABLE
2
UCS
5
7
100
AcDbSymbolTable
70
0
0
ENDTAB
0
TABLE
2
APPID
5
9
100
AcDbSymbolTable
70
2
0
APPID
5
12
100
AcDbSymbolTableRecord
100
AcDbRegAppTableRecord
2
ACAD
70
0
0
ENDTAB
0
TABLE
2
DIMSTYLE
5
A
100
AcDbSymbolTable
70
1
0
ENDTAB
0
TABLE
2
BLOCK_RECORD
5
1
100
AcDbSymbolTable
70
1
0
BLOCK_RECORD
5
1F
100
AcDbSymbolTableRecord
100
AcDbBlockTableRecord
2
*MODEL_SPACE
0
BLOCK_RECORD
5
1B
100
AcDbSymbolTableRecord
100
AcDbBlockTableRecord
2
*PAPER_SPACE
0
ENDTAB
0
ENDSEC
0
SECTION
2
BLOCKS
0
BLOCK
5
20
100
AcDbEntity
100
AcDbBlockBegin
2
*MODEL_SPACE
0
ENDBLK
5
21
100
AcDbEntity
100
AcDbBlockEnd
0
BLOCK
5
1C
100
AcDbEntity
100
AcDbBlockBegin
2
*PAPER_SPACE
0
ENDBLK
5
1D
100
AcDbEntity
100
AcDbBlockEnd
0
ENDSEC
0
SECTION
2
ENTITIES
0
LWPOLYLINE
5
100
100
AcDbEntity
8
0
100
AcDbPolyline
90
4
70
1
43
0.0
10
-4.2000000000000259
20
-164.5
10
95.199999999999989
20
-164.5
10
95.199999999999989
20
-108.99999999999999
10
-4.2000000000000171
20
-108.99999999999999
0
LWPOLYLINE
5
101
100
AcDbEntity
8
0
100
AcDbPolyline
90
24
70
1
43
0.0
10
95.199999999999974
20
-85
10
90.999999999999972
20
-85
10
90.999999999999972
20
-80.300000000000011
10
95.199999999999974
20
-80.299999999999997
10
95.199999999999974
20
-75
10
-4.2000000000000171
20
-75
10
-4.2000000000000171
20
-80.299999999999997
10
-1.7763568394002505e-14
20
-80.299999999999997
10
-1.7652546091539989e-14
20
-84.999999999999986
10
-4.2000000000000171
20
-85
10
-4.2000000000000171
20
-90.299999999999997
10
-1.7763568394002505e-14
20
-90.299999999999997
10
-1.7541523789077473e-14
20
-95
10
-4.2000000000000171
20
-94.999999999999986
10
-4.2000000000000171
20
-100.29999999999998
10
-1.7208456881689926e-14
20
-100.29999999999998
10
-1.7386092565629951e-14
20
-108.99999999999997
10
90.999999999999972
20
-108.99999999999999
10
90.999999999999972
20
-100.3
10
95.199999999999974
20
-100.29999999999998
10
95.199999999999974
20
-94.999999999999986
10
90.999999999999972
20
-94.999999999999986
10
90.999999999999972
20
-90.299999999999983
10
95.199999999999974
20
-90.299999999999997
0
LWPOLYLINE
5
102
100
AcDbEntity
8
0
100
AcDbPolyline
90
4
70
1
43
0.0
10
96.749999999999986
20
-60.750000000000014
10
105.24999999999997
20
-60.750000000000014
10
105.24999999999997
20
-69.25
10
96.749999999999986
20
-69.25
0
LWPOLYLINE
5
103
100
AcDbEntity
8
0
100
AcDbPolyline
90
26
70
1
43
0.0
10
121.00000014901156
20
-43.450000000000003
10
121.00000014901156
20
4.1999999999999904
10
115.70000014901156
20
4.1999999999999948
10
115.70000014901154
20
-4.4408920985006262e-15
10
111.00000014901156
20
-4.4408920985006293e-15
10
111.00000014901156
20
4.1999999999999948
10
105.70000014901156
20
4.1999999999999948
10
105.70000014901157
20
-4.4408920985006262e-15
10
101.00000014901158
20
-4.4408920985006293e-15
10
101.00000014901158
20
4.1999999999999948
10
95.700000149011601
20
4.1999999999999948
10
95.700000149011601
20
-4.4408920985006262e-15
10
91
20
-4.4408920985006293e-15
10
91
20
-75.000000000000014
10
95.700000149011601
20
-75
10
95.700000149011601
20
-79.200000000000003
10
101.00000014901158
20
-79.200000000000003
10
101.00000014901158
20
-75
10
105.70000014901157
20
-75
10
105.70000014901157
20
-79.200000000000003
10
111.00000014901157
20
-79.200000000000003
10
111.00000014901156
20
-75
10
115.70000014901154
20
-75
10
115.70000014901154
20
-79.200000000000003
10
125.00000014901153
20
-79.200000000000003
10
125.00000014901154
20
-43.449999999999996
0
LWPOLYLINE
5
104
100
AcDbEntity
8
0
100
AcDbPolyline
90
4
70
1
43
0.0
10
-1.0263416486754031e-46
20
-1.4791141972893971e-30
10
2.3111159332646826e-31
20
-75
10
91
20
-75
10
91
20
0
0
LWPOLYLINE
5
105
100
AcDbEntity
8
0
100
AcDbPolyline
90
26
70
1
43
0.0
10
-30.000000149011619
20
4.1999999999999993
10
-30.000000149011619
20
-19.449999999999996
10
-34.000000149011619
20
-19.449999999999996
10
-34.000000149011619
20
-79.200000000000003
10
-24.700000149011618
20
-79.200000000000003
10
-24.700000149011615
20
-75
10
-20.000000149011615
20
-75
10
-20.000000149011615
20
-79.200000000000003
10
-14.700000149011615
20
-79.200000000000003
10
-14.700000149011615
20
-75
10
-10.000000149011612
20
-75
10
-10.000000149011614
20
-79.200000000000003
10
-4.7000001490116103
20
-79.200000000000003
10
-4.7000001490116103
20
-75
10
0
20
-75
10
-2.3314683517128288e-16
20
0
10
-4.7000001490116103
20
-1.3398019799828398e-30
10
-4.7000001490116103
20
4.1999999999999993
10
-10.000000149011614
20
4.1999999999999993
10
-10.000000149011614
20
0
10
-14.700000149011615
20
-1.4630614949786207e-30
10
-14.700000149011615
20
4.1999999999999993
10
-20.000000149011615
20
4.1999999999999993
10
-20.000000149011615
20
0
10
-24.700000149011615
20
-1.586321011419404e-30
10
-24.700000149011615
20
4.1999999999999993
0
LWPOLYLINE
5
106
100
AcDbEntity
8
0
100
AcDbPolyline
90
24
70
1
43
0.0
10
90.999999999999972
20
10.000000000000002
10
95.199999999999974
20
10.000000000000002
10
95.199999999999974
20
15.300000000000002
10
90.999999999999972
20
15.300000000000002
10
90.999999999999972
20
20.000000000000004
10
95.199999999999974
20
20.000000000000004
10
95.199999999999974
20
25.300000000000004
10
90.999999999999972
20
25.300000000000004
10
90.999999999999972
20
30.000000000000004
10
-1.7763568394002505e-14
20
30.000000000000007
10
-1.748268196877234e-14
20
25.300000000000008
10
-4.2000000000000162
20
25.300000000000004
10
-4.2000000000000162
20
20.000000000000004
10
-1.7763568394002505e-14
20
20.000000000000004
10
-1.7593704271234859e-14
20
15.300000000000002
10
-4.2000000000000171
20
15.300000000000002
10
-4.2000000000000171
20
10.000000000000002
10
-1.7763568394002505e-14
20
10
10
-1.7704726573697371e-14
20
5.2999999999999989
10
-4.2000000000000171
20
5.3000000000000016
10
-4.2000000000000171
20
-1.1102230246251565e-15
10
95.199999999999974
20
2.9476421303797815e-16
10
95.199999999999974
20
5.3000000000000007
10
90.999999999999972
20
5.3000000000000007
0
ENDSEC
0
SECTION
2
OBJECTS
0
DICTIONARY
5
C
100
AcDbDictionary
3
ACAD_GROUP
350
D
3
ACAD_MLINESTYLE
350
17
0
DICTIONARY
5
D
100
AcDbDictionary
0
DICTIONARY
5
1A
330
C
100
AcDbDictionary
0
DICTIONARY
5
17
100
AcDbDictionary
0
ENDSEC
0
EOF
